<svg xmlns="http://www.w3.org/2000/svg" width="1200" height="700" viewBox="0 0 1200 700">
<rect width="1200" height="700" fill="#ffffff"/>
<text x="42" y="48" font-family="Arial" font-size="28" font-weight="700" fill="#252525">BANKING SECTOR ANALYTICS</text>
<text x="42" y="74" font-family="Arial" font-size="13" fill="#666">Customer, transactions, loans &amp; profitability</text>
<rect x="40" y="108" width="200" height="76" rx="3" fill="#fff" stroke="#e2e2e2"/><rect x="40" y="108" width="5" height="76" fill="#2563eb"/><text x="56" y="130" font-family="Arial" font-size="10" font-weight="700" fill="#777">TOTAL CUSTOMERS</text><text x="56" y="160" font-family="Arial" font-size="24" font-weight="700" fill="#252525">92</text><rect x="270" y="108" width="200" height="76" rx="3" fill="#fff" stroke="#e2e2e2"/><rect x="270" y="108" width="5" height="76" fill="#128b71"/><text x="286" y="130" font-family="Arial" font-size="10" font-weight="700" fill="#777">TOTAL DEPOSITS</text><text x="286" y="160" font-family="Arial" font-size="24" font-weight="700" fill="#252525">1.16M</text><rect x="500" y="108" width="200" height="76" rx="3" fill="#fff" stroke="#e2e2e2"/><rect x="500" y="108" width="5" height="76" fill="#ed7d31"/><text x="516" y="130" font-family="Arial" font-size="10" font-weight="700" fill="#777">TOTAL WITHDRAWALS</text><text x="516" y="160" font-family="Arial" font-size="24" font-weight="700" fill="#252525">1.28M</text><rect x="730" y="108" width="200" height="76" rx="3" fill="#fff" stroke="#e2e2e2"/><rect x="730" y="108" width="5" height="76" fill="#d62728"/><text x="746" y="130" font-family="Arial" font-size="10" font-weight="700" fill="#777">NET BALANCE GROWTH</text><text x="746" y="160" font-family="Arial" font-size="24" font-weight="700" fill="#252525">-120.88K</text><rect x="960" y="108" width="200" height="76" rx="3" fill="#fff" stroke="#e2e2e2"/><rect x="960" y="108" width="5" height="76" fill="#2563eb"/><text x="976" y="130" font-family="Arial" font-size="10" font-weight="700" fill="#777">AVG ACCOUNT BALANCE</text><text x="976" y="160" font-family="Arial" font-size="24" font-weight="700" fill="#252525">52.65K</text>
<text x="42" y="226" font-family="Arial" font-size="16" font-weight="700" fill="#2563eb">Customers by Age Group &amp; Gender</text>
<rect x="42" y="242" width="410" height="200" fill="#fafafa" stroke="#e3e3e3"/>
<line x1="75" y1="410" x2="415" y2="410" stroke="#aaa"/>
<rect x="105" y="337" width="38" height="73" fill="#2f80ed"/><rect x="147" y="297" width="38" height="113" fill="#263a9b"/>
<rect x="215" y="290" width="38" height="120" fill="#2f80ed"/><rect x="257" y="269" width="38" height="141" fill="#263a9b"/>
<rect x="325" y="290" width="38" height="120" fill="#2f80ed"/><rect x="367" y="292" width="38" height="118" fill="#263a9b"/>
<text x="100" y="432" font-family="Arial" font-size="11" fill="#666">18–30</text><text x="212" y="432" font-family="Arial" font-size="11" fill="#666">31–50</text><text x="326" y="432" font-family="Arial" font-size="11" fill="#666">51+</text>
<text x="495" y="226" font-family="Arial" font-size="16" font-weight="700" fill="#2563eb">Transactions by Day of Week</text>
<rect x="495" y="242" width="300" height="200" fill="#fafafa" stroke="#e3e3e3"/>
<text x="512" y="265" font-family="Arial" font-size="10" fill="#555">Wednesday</text><rect x="605" y="252" width="75" height="16" fill="#dbeafe"/><text x="690" y="264" font-family="Arial" font-size="10" fill="#555">359,645.94</text><text x="512" y="289" font-family="Arial" font-size="10" fill="#555">Tuesday</text><rect x="605" y="276" width="63" height="16" fill="#dbeafe"/><text x="690" y="288" font-family="Arial" font-size="10" fill="#555">364,851.18</text><text x="512" y="313" font-family="Arial" font-size="10" fill="#555">Thursday</text><rect x="605" y="300" width="51" height="16" fill="#dbeafe"/><text x="690" y="312" font-family="Arial" font-size="10" fill="#555">311,590.85</text><text x="512" y="337" font-family="Arial" font-size="10" fill="#555">Sunday</text><rect x="605" y="324" width="39" height="16" fill="#dbeafe"/><text x="690" y="336" font-family="Arial" font-size="10" fill="#555">421,623.92</text><text x="512" y="361" font-family="Arial" font-size="10" fill="#555">Saturday</text><rect x="605" y="348" width="27" height="16" fill="#dbeafe"/><text x="690" y="360" font-family="Arial" font-size="10" fill="#555">330,018.74</text><text x="512" y="385" font-family="Arial" font-size="10" fill="#555">Monday</text><rect x="605" y="372" width="15" height="16" fill="#dbeafe"/><text x="690" y="384" font-family="Arial" font-size="10" fill="#555">366,308.10</text><text x="512" y="409" font-family="Arial" font-size="10" fill="#555">Friday</text><rect x="605" y="396" width="3" height="16" fill="#dbeafe"/><text x="690" y="408" font-family="Arial" font-size="10" fill="#555">290,064.67</text>
<text x="825" y="226" font-family="Arial" font-size="16" font-weight="700" fill="#2563eb">Monthly Transaction Trend</text>
<rect x="825" y="242" width="333" height="200" fill="#fafafa" stroke="#e3e3e3"/>
<polyline points="845,382 875,345 905,362 935,353 965,368 995,348 1025,355 1055,340 1085,374 1115,359 1142,370" fill="none" stroke="#2f80ed" stroke-width="4"/>
<line x1="845" y1="392" x2="1142" y2="392" stroke="#aaa"/>
<text x="42" y="490" font-family="Arial" font-size="16" font-weight="700" fill="#128b71">Management Readout</text>
<rect x="42" y="510" width="1116" height="105" fill="#26313f"/>
<text x="68" y="548" font-family="Arial" font-size="18" font-weight="700" fill="#ffffff">Withdrawals are ahead of deposits</text>
<text x="68" y="578" font-family="Arial" font-size="14" fill="#e5e7eb">Net transaction impact: −120,876 • Dashboard basis: 250 transaction records</text>
<text x="68" y="602" font-family="Arial" font-size="12" fill="#cbd5e1">Review customer-level activity to identify the largest contributors.</text>
</svg>